<?xml version="1.0" standalone="no"?>
<!DOCTYPE svg PUBLIC "-//W3C//DTD SVG 20010904//EN"
 "http://www.w3.org/TR/2001/REC-SVG-20010904/DTD/svg10.dtd">
<svg version="1.0" xmlns="http://www.w3.org/2000/svg"
 width="512.000000pt" height="512.000000pt" viewBox="0 0 512.000000 512.000000"
 preserveAspectRatio="xMidYMid meet">
<metadata>
Created by potrace 1.14, written by Peter Selinger 2001-2017
</metadata>
<g transform="translate(0.000000,512.000000) scale(0.100000,-0.100000)"
fill="#000000" stroke="none">
<path d="M2065 3814 c-265 -42 -458 -163 -552 -348 -51 -101 -65 -156 -70
-282 -6 -137 3 -195 48 -290 81 -174 246 -276 679 -422 294 -100 373 -137 455
-213 72 -68 102 -127 116 -230 25 -178 -53 -329 -210 -408 -84 -43 -175 -62
-294 -62 -199 0 -315 42 -424 152 -84 85 -143 219 -143 326 l0 44 -157 -3
-158 -3 4 -70 c13 -261 161 -479 406 -600 172 -84 379 -119 588 -97 227 24
369 85 503 217 119 118 173 225 193 384 22 171 -20 344 -112 466 -108 144
-262 230 -637 356 -362 121 -455 171 -515 280 -28 51 -30 60 -30 169 0 105 2
120 28 171 67 138 207 209 407 209 154 0 251 -34 347 -123 56 -51 112 -164
120 -240 l6 -57 158 0 159 0 -6 58 c-31 300 -218 510 -529 593 -79 21 -305 34
-380 23z"/>
<path d="M3487 1715 c-158 -56 -175 -284 -27 -362 37 -20 56 -24 111 -21 85 5
130 33 165 106 52 105 14 220 -89 268 -58 27 -104 30 -160 9z"/>
</g>
</svg>
